<svg version="1.1" id="Layer_1" xmlns="http://www.w3.org/2000/svg" xmlns:xlink="http://www.w3.org/1999/xlink" x="0px" y="0px"
	 width="100%" viewBox="0 0 246 106" enable-background="new 0 0 246 106" xml:space="preserve">
<path fill="#FEFEFE" opacity="1.000000" stroke="none" 
	d="
M152.000000,107.000000 
	C101.333336,107.000000 51.166672,107.000000 1.000007,107.000000 
	C1.000005,71.666672 1.000005,36.333344 1.000002,1.000011 
	C82.999992,1.000008 164.999985,1.000008 246.999969,1.000004 
	C246.999985,36.333321 246.999985,71.666641 247.000000,106.999985 
	C215.500000,107.000000 184.000000,107.000000 152.000000,107.000000 
M146.133255,32.917896 
	C143.058182,31.031500 139.738205,31.548189 138.530441,34.529896 
	C137.465622,37.158699 137.527618,40.957848 138.652435,43.567677 
	C139.885315,46.428230 143.159821,47.159885 147.005753,45.132404 
	C148.263351,45.353840 149.520950,45.575272 150.474655,45.743198 
	C150.474655,40.424034 150.581421,35.702484 150.407028,30.991344 
	C150.357285,29.647381 149.491455,28.333628 148.449783,27.016407 
	C148.350998,27.340845 148.252197,27.665283 148.018860,28.793060 
	C147.675858,30.477564 147.332855,32.162067 146.906281,33.589890 
	C146.906281,33.589890 146.682907,33.438305 146.133255,32.917896 
M124.880936,45.364521 
	C126.362946,45.461365 127.844948,45.558208 128.993454,45.633259 
	C128.993454,42.603939 129.509964,39.579834 128.813416,36.867229 
	C128.342407,35.033009 126.421333,32.822971 124.677338,32.271080 
	C122.879471,31.702150 120.510262,32.938728 118.391029,33.385353 
	C118.476410,33.790455 118.561783,34.195557 118.647156,34.600658 
	C125.102539,33.363705 125.311783,33.449753 125.797020,37.399933 
	C123.874985,37.651752 121.955833,37.903194 119.343803,38.324032 
	C118.705856,40.096703 118.067917,41.869370 117.429970,43.642040 
	C119.664986,44.304485 121.900002,44.966930 124.880936,45.364521 
M163.229599,32.882030 
	C159.239609,33.486187 158.290359,36.466949 158.507690,39.720089 
	C158.738937,43.181664 160.856445,45.494358 164.433578,46.077694 
	C167.615448,46.596569 169.219574,45.603275 170.892227,41.509136 
	C166.767426,44.722797 163.435059,45.465759 160.802292,39.894222 
	C165.067780,39.894222 168.499344,39.894222 172.515884,39.894222 
	C171.846619,35.651466 171.312439,32.186470 165.937698,32.441921 
	C165.522842,32.113117 165.107971,31.784315 164.693115,31.455507 
	C164.455307,31.988365 164.217499,32.521225 163.229599,32.882030 
M183.699265,35.557877 
	C187.431274,33.002399 188.759369,34.806572 189.000504,38.503418 
	C189.162003,40.979542 189.269592,43.459179 189.401306,45.937244 
	C190.021729,45.945049 190.642151,45.952854 191.262573,45.960659 
	C191.428009,43.536716 191.218948,41.003120 191.885727,38.725975 
	C192.359161,37.109135 194.014297,35.838318 195.141998,34.413059 
	C196.126862,35.843189 197.582825,37.153320 197.984924,38.731903 
	C198.571609,41.035027 198.400848,43.531094 198.552979,45.944912 
	C199.311172,45.908268 200.069366,45.871628 200.827560,45.834984 
	C200.571228,41.913353 200.706131,37.896591 199.791443,34.135048 
	C199.554245,33.159546 196.057556,32.783035 194.008820,32.530258 
	C193.100479,32.418182 191.422928,33.889450 191.192642,33.637657 
	C188.224731,30.392708 185.054108,32.726414 181.664932,32.391094 
	C179.427261,34.589344 179.203674,42.122292 181.901382,47.014286 
	C182.344299,42.650017 182.680161,39.340672 183.699265,35.557877 
M81.810211,55.698666 
	C74.038025,47.924637 66.321678,40.093140 58.438026,32.433846 
	C57.142696,31.175381 55.129181,29.979254 53.418522,29.937223 
	C43.763943,29.700001 34.100224,29.865849 24.440189,29.804455 
	C20.435757,29.779005 18.741167,31.648518 18.752184,35.604008 
	C18.806465,55.091274 18.813808,74.578911 18.746727,94.066101 
	C18.732061,98.326149 20.660789,100.025223 24.832687,100.009621 
	C44.153278,99.937378 63.474483,99.932526 82.795021,100.011543 
	C87.329773,100.030098 89.029488,97.914619 88.950714,93.568748 
	C88.820946,86.409065 88.444443,79.205025 89.051956,72.094879 
	C89.630043,65.329124 87.831650,60.116047 81.810211,55.698666 
M219.498383,6.965171 
	C214.299606,6.965171 209.100830,6.965171 203.204086,6.965171 
	C214.911621,18.428867 225.889496,29.178089 236.970413,40.028217 
	C236.970413,30.758587 236.989304,21.318640 236.960052,11.878845 
	C236.950012,8.634390 235.253601,6.976418 231.989883,6.971754 
	C228.157700,6.966277 224.325500,6.967082 219.498383,6.965171 
M77.703224,42.386665 
	C80.152695,50.084591 86.253410,43.152519 90.116852,46.073086 
	C89.987930,43.178631 90.207916,40.814289 89.691460,38.623562 
	C89.197578,36.528584 88.422798,33.594116 86.896721,32.868584 
	C84.807457,31.875290 81.891739,32.620361 79.330238,32.620361 
	C81.701683,35.164734 86.802841,31.653845 86.868217,37.734959 
	C82.956779,37.595852 78.987061,36.632904 77.703224,42.386665 
M216.802368,37.271816 
	C216.091873,39.021545 215.381363,40.771271 214.581451,42.741177 
	C212.771729,38.876762 211.109421,35.327110 209.447113,31.777462 
	C207.367340,38.739662 217.799820,44.216469 209.466080,51.247246 
	C214.385788,51.171272 220.854767,37.744675 218.812256,32.410538 
	C218.108215,33.983253 217.532715,35.268829 216.802368,37.271816 
M97.932037,41.549259 
	C99.363792,44.808754 101.845703,46.621777 105.391212,45.991879 
	C107.063469,45.694775 108.553520,44.372074 110.082115,43.538101 
	C106.504692,42.992538 103.621452,43.028160 101.256393,41.938782 
	C100.408943,41.548431 100.133141,38.159756 100.770554,36.628204 
	C102.788231,31.780212 106.539703,35.537502 110.403046,35.758305 
	C108.182167,32.050030 105.493896,31.285078 102.513840,32.230633 
	C98.431068,33.526073 96.912636,36.613491 97.932037,41.549259 
z"/>
<path fill="#EC1E37" opacity="1.000000" stroke="none" 
	d="
M82.061722,55.949959 
	C87.831650,60.116047 89.630043,65.329124 89.051956,72.094879 
	C88.444443,79.205025 88.820946,86.409065 88.950714,93.568748 
	C89.029488,97.914619 87.329773,100.030098 82.795021,100.011543 
	C63.474483,99.932526 44.153278,99.937378 24.832687,100.009621 
	C20.660789,100.025223 18.732061,98.326149 18.746727,94.066101 
	C18.813808,74.578911 18.806465,55.091274 18.752184,35.604008 
	C18.741167,31.648518 20.435757,29.779005 24.440189,29.804455 
	C34.100224,29.865849 43.763943,29.700001 53.418522,29.937223 
	C55.129181,29.979254 57.142696,31.175381 58.438026,32.433846 
	C66.321678,40.093140 74.038025,47.924637 82.061722,55.949959 
M36.942764,51.019093 
	C34.679020,51.021229 32.415272,51.023365 29.480782,51.538136 
	C29.366266,63.952488 29.243908,76.366798 29.172678,88.781403 
	C29.170393,89.180054 29.692001,89.581711 30.409115,90.585770 
	C32.844124,90.368118 35.279129,90.150467 38.434555,89.488060 
	C38.550858,77.023354 38.675335,64.558685 38.741386,52.093712 
	C38.743244,51.743675 38.120930,51.390335 36.942764,51.019093 
M69.001503,55.519855 
	C62.919956,50.861298 55.660320,48.532467 49.270184,52.794670 
	C37.687523,60.520267 38.269958,76.877602 45.970669,84.583733 
	C49.063942,87.679192 54.468925,90.956841 58.226223,90.365784 
	C65.534195,89.216187 71.136353,84.228470 73.038139,76.180115 
	C74.759796,68.894043 72.740448,62.429905 69.001503,55.519855 
z"/>
<path fill="#ED223A" opacity="1.000000" stroke="none" 
	d="
M219.995850,6.965166 
	C224.325500,6.967082 228.157700,6.966277 231.989883,6.971754 
	C235.253601,6.976418 236.950012,8.634390 236.960052,11.878845 
	C236.989304,21.318640 236.970413,30.758587 236.970413,40.028217 
	C225.889496,29.178089 214.911621,18.428867 203.204086,6.965171 
	C209.100830,6.965171 214.299606,6.965171 219.995850,6.965166 
z"/>
<path fill="#7E7E7E" opacity="1.000000" stroke="none" 
	d="
M181.973541,33.092136 
	C185.054108,32.726414 188.224731,30.392708 191.192642,33.637657 
	C191.422928,33.889450 193.100479,32.418182 194.008820,32.530258 
	C196.057556,32.783035 199.554245,33.159546 199.791443,34.135048 
	C200.706131,37.896591 200.571228,41.913353 200.827560,45.834984 
	C200.069366,45.871628 199.311172,45.908268 198.552979,45.944912 
	C198.400848,43.531094 198.571609,41.035027 197.984924,38.731903 
	C197.582825,37.153320 196.126862,35.843189 195.141998,34.413059 
	C194.014297,35.838318 192.359161,37.109135 191.885727,38.725975 
	C191.218948,41.003120 191.428009,43.536716 191.262573,45.960659 
	C190.642151,45.952854 190.021729,45.945049 189.401306,45.937244 
	C189.269592,43.459179 189.162003,40.979542 189.000504,38.503418 
	C188.759369,34.806572 187.431274,33.002399 183.233292,35.503525 
	C182.502731,34.663490 182.238144,33.877811 181.973541,33.092136 
z"/>
<path fill="#767676" opacity="1.000000" stroke="none" 
	d="
M77.699326,42.033398 
	C78.987061,36.632904 82.956779,37.595852 86.868217,37.734959 
	C86.802841,31.653845 81.701683,35.164734 79.330238,32.620361 
	C81.891739,32.620361 84.807457,31.875290 86.896721,32.868584 
	C88.422798,33.594116 89.197578,36.528584 89.691460,38.623562 
	C90.207916,40.814289 89.987930,43.178631 90.116852,46.073086 
	C86.253410,43.152519 80.152695,50.084591 77.699326,42.033398 
M81.413208,39.768715 
	C81.264931,41.002964 81.116646,42.237213 80.968369,43.471458 
	C82.537514,43.486088 84.196114,43.804672 85.636238,43.380875 
	C86.307335,43.183384 86.554962,41.546879 86.994537,40.562641 
	C85.364464,40.168674 83.734383,39.774704 81.413208,39.768715 
z"/>
<path fill="#747474" opacity="1.000000" stroke="none" 
	d="
M216.879791,36.913109 
	C217.532715,35.268829 218.108215,33.983253 218.812256,32.410538 
	C220.854767,37.744675 214.385788,51.171272 209.466080,51.247246 
	C217.799820,44.216469 207.367340,38.739662 209.447113,31.777462 
	C211.109421,35.327110 212.771729,38.876762 214.581451,42.741177 
	C215.381363,40.771271 216.091873,39.021545 216.879791,36.913109 
z"/>
<path fill="#757575" opacity="1.000000" stroke="none" 
	d="
M166.020523,33.053478 
	C171.312439,32.186470 171.846619,35.651466 172.515884,39.894222 
	C168.499344,39.894222 165.067780,39.894222 160.802292,39.894222 
	C163.435059,45.465759 166.767426,44.722797 170.892227,41.509136 
	C169.219574,45.603275 167.615448,46.596569 164.433578,46.077694 
	C160.856445,45.494358 158.738937,43.181664 158.507690,39.720089 
	C158.290359,36.466949 159.239609,33.486187 163.532730,33.308105 
	C162.885941,34.912304 161.936035,36.090427 160.683151,37.644310 
	C164.286728,37.644310 166.981186,37.644310 170.949982,37.644310 
	C168.718842,35.566441 167.369690,34.309959 166.020523,33.053478 
z"/>
<path fill="#747474" opacity="1.000000" stroke="none" 
	d="
M97.844666,41.187347 
	C96.912636,36.613491 98.431068,33.526073 102.513840,32.230633 
	C105.493896,31.285078 108.182167,32.050030 110.403046,35.758305 
	C106.539703,35.537502 102.788231,31.780212 100.770554,36.628204 
	C100.133141,38.159756 100.408943,41.548431 101.256393,41.938782 
	C103.621452,43.028160 106.504692,42.992538 110.082115,43.538101 
	C108.553520,44.372074 107.063469,45.694775 105.391212,45.991879 
	C101.845703,46.621777 99.363792,44.808754 97.844666,41.187347 
z"/>
<path fill="#777777" opacity="1.000000" stroke="none" 
	d="
M120.036682,38.154633 
	C121.955833,37.903194 123.874985,37.651752 125.797020,37.399933 
	C125.311783,33.449753 125.102539,33.363705 118.647156,34.600658 
	C118.561783,34.195557 118.476410,33.790455 118.391029,33.385353 
	C120.510262,32.938728 122.879471,31.702150 124.677338,32.271080 
	C126.421333,32.822971 128.342407,35.033009 128.813416,36.867229 
	C129.509964,39.579834 128.993454,42.603939 128.993454,45.633259 
	C127.844948,45.558208 126.362946,45.461365 124.473969,45.129860 
	C124.046692,44.651001 124.026382,44.406799 124.304810,43.995163 
	C125.185532,42.622887 125.767517,41.418041 126.349503,40.213196 
	C124.660255,39.855389 122.971008,39.497578 121.031013,39.034454 
	C120.532402,38.670975 120.284546,38.412804 120.036682,38.154633 
z"/>
<path fill="#696969" opacity="1.000000" stroke="none" 
	d="
M146.989853,33.846573 
	C147.332855,32.162067 147.675858,30.477564 148.276764,28.274937 
	C148.766678,27.554214 148.921722,27.303951 148.999847,27.006021 
	C149.491455,28.333628 150.357285,29.647381 150.407028,30.991344 
	C150.581421,35.702484 150.474655,40.424034 150.474655,45.743198 
	C149.520950,45.575272 148.263351,45.353840 146.372162,45.013344 
	C145.495697,44.629383 145.252808,44.364475 145.329315,43.919884 
	C149.141968,41.339626 148.477768,38.315262 146.953918,34.831264 
	C146.977661,34.284367 146.983765,34.065472 146.989853,33.846573 
z"/>
<path fill="#747474" opacity="1.000000" stroke="none" 
	d="
M145.009903,44.099571 
	C145.252808,44.364475 145.495697,44.629383 145.986664,45.010429 
	C143.159821,47.159885 139.885315,46.428230 138.652435,43.567677 
	C137.527618,40.957848 137.465622,37.158699 138.530441,34.529896 
	C139.738205,31.548189 143.058182,31.031500 146.154968,33.388149 
	C146.023972,34.013744 145.871231,34.169086 145.354614,34.268654 
	C141.458786,33.705738 139.606003,35.663734 139.463242,38.798962 
	C139.304260,42.290108 141.471664,44.094406 145.009903,44.099571 
z"/>
<path fill="#757575" opacity="1.000000" stroke="none" 
	d="
M181.819244,32.741615 
	C182.238144,33.877811 182.502731,34.663490 182.891663,35.740250 
	C182.680161,39.340672 182.344299,42.650017 181.901382,47.014286 
	C179.203674,42.122292 179.427261,34.589344 181.819244,32.741615 
z"/>
<path fill="#F7F7F7" opacity="1.000000" stroke="none" 
	d="
M165.979111,32.747700 
	C167.369690,34.309959 168.718842,35.566441 170.949982,37.644310 
	C166.981186,37.644310 164.286728,37.644310 160.683151,37.644310 
	C161.936035,36.090427 162.885941,34.912304 163.907776,33.394127 
	C164.217499,32.521225 164.455307,31.988365 164.693115,31.455509 
	C165.107971,31.784315 165.522842,32.113117 165.979111,32.747700 
z"/>
<path fill="#7A7A7A" opacity="1.000000" stroke="none" 
	d="
M124.006073,44.162598 
	C124.026382,44.406799 124.046692,44.651001 124.101013,45.262291 
	C121.900002,44.966930 119.664986,44.304485 117.429970,43.642040 
	C118.067917,41.869370 118.705856,40.096703 119.690247,38.239334 
	C120.284546,38.412804 120.532402,38.670975 120.801041,39.285053 
	C117.596870,44.166748 120.909851,44.088345 124.006073,44.162598 
z"/>
<path fill="#747474" opacity="1.000000" stroke="none" 
	d="
M146.948059,33.718231 
	C146.983765,34.065472 146.977661,34.284367 146.704071,34.767014 
	C146.197205,34.795315 145.957855,34.559872 145.718491,34.324432 
	C145.871231,34.169086 146.023972,34.013744 146.429810,33.648354 
	C146.682907,33.438305 146.906281,33.589890 146.948059,33.718231 
z"/>
<path fill="#747474" opacity="1.000000" stroke="none" 
	d="
M148.724823,27.011215 
	C148.921722,27.303951 148.766678,27.554214 148.344055,27.873266 
	C148.252197,27.665283 148.350998,27.340845 148.724823,27.011215 
z"/>
<path fill="#FEF7F8" opacity="1.000000" stroke="none" 
	d="
M69.238297,55.815338 
	C72.740448,62.429905 74.759796,68.894043 73.038139,76.180115 
	C71.136353,84.228470 65.534195,89.216187 58.226223,90.365784 
	C54.468925,90.956841 49.063942,87.679192 45.970669,84.583733 
	C38.269958,76.877602 37.687523,60.520267 49.270184,52.794670 
	C55.660320,48.532467 62.919956,50.861298 69.238297,55.815338 
M61.465992,79.126862 
	C65.647438,75.116165 66.276718,66.212906 62.688065,61.836700 
	C59.542484,58.000801 55.330212,57.875790 51.854290,61.515186 
	C48.529659,64.996170 48.443974,76.936951 52.436535,79.516968 
	C54.457943,80.823212 58.035858,79.720757 61.465992,79.126862 
z"/>
<path fill="#FEF3F4" opacity="1.000000" stroke="none" 
	d="
M30.151527,51.025497 
	C32.415272,51.023365 34.679020,51.021229 37.429630,51.491386 
	C37.849045,64.620056 37.781593,77.276436 37.714142,89.932816 
	C35.279129,90.150467 32.844124,90.368118 30.239994,89.819130 
	C30.097759,76.376823 30.124643,63.701164 30.151527,51.025497 
z"/>
<path fill="#DA0024" opacity="1.000000" stroke="none" 
	d="
M38.074348,89.710434 
	C37.781593,77.276436 37.849045,64.620056 37.853077,51.501106 
	C38.120930,51.390335 38.743244,51.743675 38.741386,52.093712 
	C38.675335,64.558685 38.550858,77.023354 38.074348,89.710434 
z"/>
<path fill="#D80024" opacity="1.000000" stroke="none" 
	d="
M29.816154,51.281818 
	C30.124643,63.701164 30.097759,76.376823 30.020130,89.517227 
	C29.692001,89.581711 29.170393,89.180054 29.172678,88.781403 
	C29.243908,76.366798 29.366266,63.952488 29.816154,51.281818 
z"/>
<path fill="#F6F6F6" opacity="1.000000" stroke="none" 
	d="
M81.758759,39.574726 
	C83.734383,39.774704 85.364464,40.168674 86.994537,40.562641 
	C86.554962,41.546879 86.307335,43.183384 85.636238,43.380875 
	C84.196114,43.804672 82.537514,43.486088 80.968369,43.471458 
	C81.116646,42.237213 81.264931,41.002964 81.758759,39.574726 
z"/>
<path fill="#F0F0F0" opacity="1.000000" stroke="none" 
	d="
M124.304810,43.995163 
	C120.909851,44.088345 117.596870,44.166748 121.051788,39.390366 
	C122.971008,39.497578 124.660255,39.855389 126.349503,40.213196 
	C125.767517,41.418041 125.185532,42.622887 124.304810,43.995163 
z"/>
<path fill="#F7F7F7" opacity="1.000000" stroke="none" 
	d="
M145.354614,34.268654 
	C145.957855,34.559872 146.197205,34.795315 146.686401,35.095009 
	C148.477768,38.315262 149.141968,41.339626 145.329315,43.919888 
	C141.471664,44.094406 139.304260,42.290108 139.463242,38.798962 
	C139.606003,35.663734 141.458786,33.705738 145.354614,34.268654 
z"/>
<path fill="#EA1C35" opacity="1.000000" stroke="none" 
	d="
M61.188019,79.417091 
	C58.035858,79.720757 54.457943,80.823212 52.436535,79.516968 
	C48.443974,76.936951 48.529659,64.996170 51.854290,61.515186 
	C55.330212,57.875790 59.542484,58.000801 62.688065,61.836700 
	C66.276718,66.212906 65.647438,75.116165 61.188019,79.417091 
z"/>
</svg>